<svg width="34" height="34" viewBox="0 0 34 34" fill="none" xmlns="http://www.w3.org/2000/svg">
<path fill-rule="evenodd" clip-rule="evenodd" d="M16.6667 33.3333C25.8714 33.3333 33.3333 25.8714 33.3333 16.6667C33.3333 7.46192 25.8714 0 16.6667 0C7.46192 0 0 7.46192 0 16.6667C0 25.8714 7.46192 33.3333 16.6667 33.3333ZM12.4909 20.7269C11.9748 20.2742 11.1892 20.3223 10.7324 20.8362C10.2738 21.3522 10.3202 22.1423 10.8362 22.6009L11.2946 22.9532C11.5652 23.1414 11.9534 23.3843 12.4495 23.6248C13.4417 24.1059 14.8779 24.5833 16.6667 24.5833C18.4554 24.5833 19.8917 24.1059 20.8839 23.6248C21.38 23.3843 21.7682 23.1414 22.0387 22.9532C22.1742 22.859 22.2809 22.778 22.3575 22.7171L22.4971 22.6009C23.0131 22.1423 23.0596 21.3522 22.6009 20.8362C22.1441 20.3223 21.3585 20.2741 20.8424 20.7269L20.6111 20.901C20.4324 21.0253 20.1565 21.1991 19.7932 21.3752C19.0667 21.7275 18.0029 22.0833 16.6667 22.0833C15.3304 22.0833 14.2667 21.7275 13.5401 21.3752C13.1768 21.1991 12.901 21.0253 12.7223 20.901L12.4909 20.7269ZM25 13.3333C25 14.2538 24.2538 15 23.3333 15C22.4129 15 21.6667 14.2538 21.6667 13.3333C21.6667 12.4129 22.4129 11.6667 23.3333 11.6667C24.2538 11.6667 25 12.4129 25 13.3333ZM10 15C10.9205 15 11.6667 14.2538 11.6667 13.3333C11.6667 12.4129 10.9205 11.6667 10 11.6667C9.07953 11.6667 8.33333 12.4129 8.33333 13.3333C8.33333 14.2538 9.07953 15 10 15Z" fill="#E6A522"/>
</svg>
