<svg width="79" height="44" viewBox="0 0 79 44" fill="none" xmlns="http://www.w3.org/2000/svg">
<path d="M5.78055 36.5193V10.884L8.67083 13.6878H0V8.48066H12.4695V36.5193H5.78055Z" fill="#F5BD40"/>
<path d="M29.8773 37C27.51 37 25.3904 36.4392 23.5186 35.3177C21.6468 34.1694 20.1742 32.5138 19.1007 30.3508C18.0271 28.1878 17.4904 25.5709 17.4904 22.5C17.4904 19.4291 18.0271 16.8122 19.1007 14.6492C20.1742 12.4862 21.6468 10.8439 23.5186 9.72237C25.3904 8.57412 27.51 8 29.8773 8C32.2721 8 34.3916 8.57412 36.2359 9.72237C38.1077 10.8439 39.5803 12.4862 40.6539 14.6492C41.7274 16.8122 42.2641 19.4291 42.2641 22.5C42.2641 25.5709 41.7274 28.1878 40.6539 30.3508C39.5803 32.5138 38.1077 34.1694 36.2359 35.3177C34.3916 36.4392 32.2721 37 29.8773 37ZM29.8773 31.5124C31.0058 31.5124 31.983 31.2053 32.8088 30.5912C33.6621 29.977 34.3228 29.0023 34.7907 27.6671C35.2862 26.332 35.5339 24.6096 35.5339 22.5C35.5339 20.3904 35.2862 18.668 34.7907 17.3329C34.3228 15.9977 33.6621 15.023 32.8088 14.4088C31.983 13.7947 31.0058 13.4876 29.8773 13.4876C28.7762 13.4876 27.799 13.7947 26.9457 14.4088C26.1199 15.023 25.4593 15.9977 24.9638 17.3329C24.4958 18.668 24.2619 20.3904 24.2619 22.5C24.2619 24.6096 24.4958 26.332 24.9638 27.6671C25.4593 29.0023 26.1199 29.977 26.9457 30.5912C27.799 31.2053 28.7762 31.5124 29.8773 31.5124Z" fill="#F5BD40"/>
<path d="M49.6843 36.5193L69.4208 8.48066H74.3343L54.5978 36.5193H49.6843ZM52.203 23.6215C50.7992 23.6215 49.5605 23.3145 48.487 22.7003C47.4134 22.0594 46.5601 21.1648 45.927 20.0166C45.3214 18.8416 45.0186 17.4664 45.0186 15.8909C45.0186 14.3154 45.3214 12.9535 45.927 11.8052C46.5601 10.657 47.4134 9.76243 48.487 9.12155C49.5605 8.48066 50.7992 8.16022 52.203 8.16022C53.6069 8.16022 54.8456 8.48066 55.9191 9.12155C56.9926 9.76243 57.8322 10.657 58.4378 11.8052C59.0433 12.9535 59.3461 14.3154 59.3461 15.8909C59.3461 17.4664 59.0433 18.8416 58.4378 20.0166C57.8322 21.1648 56.9926 22.0594 55.9191 22.7003C54.8456 23.3145 53.6069 23.6215 52.203 23.6215ZM52.203 20.337C53.1114 20.337 53.8408 19.9765 54.3914 19.2555C54.9419 18.5078 55.2172 17.3863 55.2172 15.8909C55.2172 14.3955 54.9419 13.2873 54.3914 12.5663C53.8408 11.8186 53.1114 11.4448 52.203 11.4448C51.3222 11.4448 50.5927 11.8186 50.0147 12.5663C49.4641 13.2873 49.1889 14.3955 49.1889 15.8909C49.1889 17.3596 49.4641 18.4678 50.0147 19.2155C50.5927 19.9632 51.3222 20.337 52.203 20.337ZM71.8156 36.8398C70.4393 36.8398 69.2006 36.5327 68.0995 35.9185C67.026 35.2776 66.1864 34.3831 65.5809 33.2348C64.9753 32.0599 64.6725 30.6846 64.6725 29.1091C64.6725 27.5336 64.9753 26.1717 65.5809 25.0235C66.1864 23.8752 67.026 22.9807 68.0995 22.3398C69.2006 21.6989 70.4393 21.3785 71.8156 21.3785C73.247 21.3785 74.4994 21.6989 75.573 22.3398C76.6465 22.9807 77.486 23.8752 78.0916 25.0235C78.6972 26.1717 79 27.5336 79 29.1091C79 30.6846 78.6972 32.0599 78.0916 33.2348C77.486 34.3831 76.6465 35.2776 75.573 35.9185C74.4994 36.5327 73.247 36.8398 71.8156 36.8398ZM71.8156 33.5552C72.724 33.5552 73.4534 33.1948 74.004 32.4738C74.5545 31.7261 74.8297 30.6045 74.8297 29.1091C74.8297 27.6404 74.5545 26.5322 74.004 25.7845C73.4534 25.0368 72.724 24.663 71.8156 24.663C70.9348 24.663 70.2053 25.0368 69.6273 25.7845C69.0767 26.5055 68.8015 27.6137 68.8015 29.1091C68.8015 30.6045 69.0767 31.7261 69.6273 32.4738C70.2053 33.1948 70.9348 33.5552 71.8156 33.5552Z" fill="#F5BD40"/>
<path d="M10.292 35V11.96L12.812 14.48H5.252V9.8H16.124V35H10.292ZM31.3017 35.432C29.2377 35.432 27.3897 34.928 25.7577 33.92C24.1257 32.888 22.8417 31.4 21.9057 29.456C20.9697 27.512 20.5017 25.16 20.5017 22.4C20.5017 19.64 20.9697 17.288 21.9057 15.344C22.8417 13.4 24.1257 11.924 25.7577 10.916C27.3897 9.884 29.2377 9.368 31.3017 9.368C33.3897 9.368 35.2377 9.884 36.8457 10.916C38.4777 11.924 39.7617 13.4 40.6977 15.344C41.6337 17.288 42.1017 19.64 42.1017 22.4C42.1017 25.16 41.6337 27.512 40.6977 29.456C39.7617 31.4 38.4777 32.888 36.8457 33.92C35.2377 34.928 33.3897 35.432 31.3017 35.432ZM31.3017 30.5C32.2857 30.5 33.1377 30.224 33.8577 29.672C34.6017 29.12 35.1777 28.244 35.5857 27.044C36.0177 25.844 36.2337 24.296 36.2337 22.4C36.2337 20.504 36.0177 18.956 35.5857 17.756C35.1777 16.556 34.6017 15.68 33.8577 15.128C33.1377 14.576 32.2857 14.3 31.3017 14.3C30.3417 14.3 29.4897 14.576 28.7457 15.128C28.0257 15.68 27.4497 16.556 27.0177 17.756C26.6097 18.956 26.4057 20.504 26.4057 22.4C26.4057 24.296 26.6097 25.844 27.0177 27.044C27.4497 28.244 28.0257 29.12 28.7457 29.672C29.4897 30.224 30.3417 30.5 31.3017 30.5ZM48.5713 35L65.7793 9.8H70.0633L52.8553 35H48.5713ZM50.7673 23.408C49.5433 23.408 48.4633 23.132 47.5273 22.58C46.5913 22.004 45.8473 21.2 45.2953 20.168C44.7673 19.112 44.5033 17.876 44.5033 16.46C44.5033 15.044 44.7673 13.82 45.2953 12.788C45.8473 11.756 46.5913 10.952 47.5273 10.376C48.4633 9.8 49.5433 9.512 50.7673 9.512C51.9913 9.512 53.0713 9.8 54.0073 10.376C54.9433 10.952 55.6753 11.756 56.2033 12.788C56.7313 13.796 56.9953 15.02 56.9953 16.46C56.9953 17.876 56.7313 19.112 56.2033 20.168C55.6753 21.2 54.9433 22.004 54.0073 22.58C53.0713 23.132 51.9913 23.408 50.7673 23.408ZM50.7673 20.456C51.5593 20.456 52.1953 20.132 52.6753 19.484C53.1553 18.812 53.3953 17.804 53.3953 16.46C53.3953 15.116 53.1553 14.12 52.6753 13.472C52.1953 12.8 51.5593 12.464 50.7673 12.464C49.9993 12.464 49.3633 12.8 48.8593 13.472C48.3793 14.144 48.1393 15.14 48.1393 16.46C48.1393 17.78 48.3793 18.776 48.8593 19.448C49.3633 20.12 49.9993 20.456 50.7673 20.456ZM67.8673 35.288C66.6673 35.288 65.5873 35.012 64.6273 34.46C63.6913 33.884 62.9593 33.08 62.4313 32.048C61.9033 30.992 61.6393 29.756 61.6393 28.34C61.6393 26.924 61.9033 25.7 62.4313 24.668C62.9593 23.636 63.6913 22.832 64.6273 22.256C65.5873 21.68 66.6673 21.392 67.8673 21.392C69.1153 21.392 70.2073 21.68 71.1433 22.256C72.0793 22.832 72.8113 23.636 73.3393 24.668C73.8673 25.7 74.1313 26.924 74.1313 28.34C74.1313 29.756 73.8673 30.992 73.3393 32.048C72.8113 33.08 72.0793 33.884 71.1433 34.46C70.2073 35.012 69.1153 35.288 67.8673 35.288ZM67.8673 32.336C68.6593 32.336 69.2953 32 69.7753 31.328C70.2553 30.656 70.4953 29.66 70.4953 28.34C70.4953 27.02 70.2553 26.024 69.7753 25.352C69.2953 24.68 68.6593 24.344 67.8673 24.344C67.0993 24.344 66.4633 24.68 65.9593 25.352C65.4793 26 65.2393 26.996 65.2393 28.34C65.2393 29.684 65.4793 30.692 65.9593 31.364C66.4633 32.012 67.0993 32.336 67.8673 32.336Z" fill="white"/>
</svg>
