<svg width="30" height="34" viewBox="0 0 30 34" fill="none" xmlns="http://www.w3.org/2000/svg">
<path fill-rule="evenodd" clip-rule="evenodd" d="M1.25 0C1.94036 0 2.5 0.559644 2.5 1.25V1.66667H20C21.841 1.66667 23.3333 3.15905 23.3333 5V8.33333V16.6667V17.9167C23.3333 19.0673 22.4006 20 21.25 20L20 20L6.66667 20L2.5 20V32.0833C2.5 32.7737 1.94036 33.3333 1.25 33.3333C0.559644 33.3333 0 32.7737 0 32.0833V20V1.66667V1.25C0 0.559644 0.559644 0 1.25 0ZM6.66667 23.3333V22.5H21.25C23.7813 22.5 25.8333 20.448 25.8333 17.9167V8.33333H26.6667C28.5076 8.33333 30 9.82572 30 11.6667V23.3333C30 25.1743 28.5076 26.6667 26.6667 26.6667H10C8.15905 26.6667 6.66667 25.1743 6.66667 23.3333Z" fill="#E6A522"/>
</svg>
