<svg width="40" height="40" viewBox="0 0 40 40" fill="none" xmlns="http://www.w3.org/2000/svg">
<path fill-rule="evenodd" clip-rule="evenodd" d="M14.5833 3.33331C14.5833 2.64296 14.0237 2.08331 13.3333 2.08331C12.643 2.08331 12.0833 2.64296 12.0833 3.33331V5.83331H11.6667C7.98477 5.83331 5 8.81808 5 12.5V13.75H35V12.5C35 8.81808 32.0152 5.83331 28.3333 5.83331H27.9167V3.33331C27.9167 2.64296 27.357 2.08331 26.6667 2.08331C25.9763 2.08331 25.4167 2.64296 25.4167 3.33331V5.83331H14.5833V3.33331ZM5 16.25H35V30C35 33.6819 32.0152 36.6666 28.3333 36.6666H11.6667C7.98477 36.6666 5 33.6819 5 30V16.25Z" fill="#E6A522"/>
</svg>
