<svg width="40" height="40" viewBox="0 0 40 40" fill="none" xmlns="http://www.w3.org/2000/svg">
<path fill-rule="evenodd" clip-rule="evenodd" d="M21.1851 35H26.4614C29.5206 35 32.1871 32.918 32.9291 29.9502L35.6312 19.1418C36.1571 17.038 34.5659 15 32.3974 15H24.1666L26.3447 11.2661C27.9651 8.48839 25.9614 5 22.7456 5H20.8333L14.3862 16.2824C14.2423 16.5342 14.1666 16.8192 14.1666 17.1093V30.7747C14.1666 31.3319 14.4451 31.8523 14.9088 32.1614L17.4871 33.8803C18.5822 34.6104 19.869 35 21.1851 35ZM6.66659 15H8.33325C10.1742 15 11.6666 16.4924 11.6666 18.3333V30C11.6666 31.8409 10.1742 33.3333 8.33325 33.3333H6.66659C4.82564 33.3333 3.33325 31.8409 3.33325 30V18.3333C3.33325 16.4924 4.82564 15 6.66659 15Z" fill="#E6A522"/>
</svg>
