<svg width="67" height="43" viewBox="0 0 67 43" fill="none" xmlns="http://www.w3.org/2000/svg">
<path d="M47.6408 22.923C43.1841 26.4715 38.6121 29.5443 36.8832 30.6371C43.4146 32.9514 52.4433 24.2729 53.2117 23.6944C53.9801 23.1158 57.2458 20.4159 55.709 19.0659C54.1762 17.7194 53.2167 18.4834 47.6838 22.8888L47.6408 22.923Z" fill="url(#paint0_linear_2860_207)"/>
<path d="M56.4774 22.5372C52.4817 25.9315 47.3847 29.4799 45.3356 30.8299C47.4487 31.4085 53.0196 30.2514 59.3589 25.8158C64.4304 22.2673 63.7772 20.4802 62.8167 20.0302C62.3685 19.4516 60.4731 19.143 56.4774 22.5372Z" fill="url(#paint1_linear_2860_207)"/>
<path d="M16.1364 16.1731C9.37448 16.9445 2.56133 25.3658 0 29.48C9.605 29.48 20.7468 36.2298 28.815 39.894C36.8832 43.5582 43.6067 43.9439 50.7144 41.244C57.8221 38.5441 65.1219 30.0585 66.0824 28.7086C67.0429 27.3586 68.5797 20.9944 62.6246 25.4301C56.6695 29.8657 48.2171 33.7227 38.8042 32.9513C31.2739 32.3342 26.1896 27.0372 24.5888 24.4658C27.2782 26.3943 32.8491 27.5514 36.499 27.1657C40.1489 26.78 41.0435 22.3329 38.8042 22.5373C36.6911 22.7301 31.4404 20.0945 28.815 18.4874C27.4063 17.3945 22.8983 15.4017 16.1364 16.1731Z" fill="url(#paint2_linear_2860_207)"/>
<circle cx="40.5" cy="9.5" r="9.5" fill="#E6A922"/>
<defs>
<linearGradient id="paint0_linear_2860_207" x1="67" y1="16" x2="7.95232" y2="54.6788" gradientUnits="userSpaceOnUse">
<stop stop-color="#43BE5F"/>
<stop offset="1" stop-color="#48CC66"/>
</linearGradient>
<linearGradient id="paint1_linear_2860_207" x1="67" y1="16" x2="7.95232" y2="54.6788" gradientUnits="userSpaceOnUse">
<stop stop-color="#43BE5F"/>
<stop offset="1" stop-color="#48CC66"/>
</linearGradient>
<linearGradient id="paint2_linear_2860_207" x1="67" y1="16" x2="7.95232" y2="54.6788" gradientUnits="userSpaceOnUse">
<stop stop-color="#43BE5F"/>
<stop offset="1" stop-color="#48CC66"/>
</linearGradient>
</defs>
</svg>
