<svg width="64" height="64" viewBox="0 0 64 64" fill="none" xmlns="http://www.w3.org/2000/svg">
<circle cx="32" cy="32" r="32" fill="#E6A922"/>
<path d="M42.4197 32.8564C39.2933 35.3457 36.0861 37.5012 34.8733 38.2678C39.455 39.8913 45.7886 33.8034 46.3276 33.3976C46.8666 32.9917 49.1575 31.0977 48.0795 30.1507C47.0042 29.2062 46.3311 29.7421 42.4498 32.8324L42.4197 32.8564Z" fill="white"/>
<path d="M48.6185 32.5858C45.8155 34.9668 42.24 37.4561 40.8026 38.4031C42.2849 38.8089 46.1929 37.9972 50.6398 34.8857C54.1974 32.3964 53.7392 31.1428 53.0655 30.8271C52.751 30.4213 51.4214 30.2048 48.6185 32.5858Z" fill="white"/>
<path d="M20.3196 28.1214C15.5761 28.6626 10.7968 34.57 9 37.4561C15.7378 37.4561 23.5537 42.1911 29.2135 44.7615C34.8733 47.3319 39.5898 47.6025 44.5758 45.7085C49.5618 43.8145 54.6825 37.862 55.3563 36.915C56.0301 35.968 57.1082 31.5036 52.9307 34.6151C48.7532 37.7267 42.8239 40.4324 36.2209 39.8912C30.9384 39.4583 27.3718 35.7425 26.2489 33.9387C28.1355 35.2915 32.0434 36.1032 34.6038 35.8327C37.1642 35.5621 37.7917 32.4425 36.2209 32.5858C34.7385 32.7211 31.0552 30.8722 29.2135 29.7449C28.2253 28.9782 25.063 27.5803 20.3196 28.1214Z" fill="white"/>
<circle cx="37.6642" cy="23.6642" r="6.66418" fill="white"/>
</svg>
