<svg width="40" height="40" viewBox="0 0 40 40" fill="none" xmlns="http://www.w3.org/2000/svg">
<circle cx="20" cy="20" r="20" fill="#F2F2F2"/>
<path fill-rule="evenodd" clip-rule="evenodd" d="M16.75 14.75C16.75 12.9551 18.2051 11.5 20 11.5C21.7949 11.5 23.25 12.9551 23.25 14.75V16H16.75V14.75ZM15.25 16.0702V14.75C15.25 12.1266 17.3766 10 20 10C22.6234 10 24.75 12.1266 24.75 14.75V16.0702C26.6006 16.4213 28 18.0472 28 20V26C28 28.2091 26.2091 30 24 30H16C13.7909 30 12 28.2091 12 26V20C12 18.0472 13.3994 16.4213 15.25 16.0702ZM22 23C22 24.1046 21.1046 25 20 25C18.8954 25 18 24.1046 18 23C18 21.8954 18.8954 21 20 21C21.1046 21 22 21.8954 22 23Z" fill="#E6A922"/>
</svg>
